# xmcd
#
# Track frame offsets:
#	150
#	11700
#	20022
#	39940
#	52595
#	64655
#	78230
#	91325
#	101882
#	116937
#	133657
#
# Disc length: 1956
#
# Revision: 4
# Processed by: cddbd v1.5.1PL0 Copyright (c) Steve Scherf et al.
# Submitted via: EZCDDA 4.3.2
# Normalized: r2:DSETVAR1,TDELIM( - ),TSWAP
#
DISCID=8807a20b
DTITLE=Various Artist - Mégane 1 Millón - Juke Box
DYEAR=1900
DGENRE=
TTITLE0=The Equals - Baby Come Back
TTITLE1=Jerry Lee Lewis - Great Balls Of Fire
TTITLE2=Al Jarreau - Lean On Me
TTITLE3=Bill Haley and The Comets - See You Later Alligator
TTITLE4=Sam and Dave - Soul Man
TTITLE5=Ben E. King - Stand By Me
TTITLE6=The Archies - Sugar Sugar
TTITLE7=Little Anthony and The Imperials - Tears On My Pillow
TTITLE8=Astrud Gilberto - The Girl From Ipanema
TTITLE9=Gerry And The Pacemakers - Unchained Melody
TTITLE10=Percy Sledge - When A Man Loves A Woman
EXTD=
EXTT0=
EXTT1=
EXTT2=
EXTT3=
EXTT4=
EXTT5=
EXTT6=
EXTT7=
EXTT8=
EXTT9=
EXTT10=
PLAYORDER=
